# xmcd
#
# Track frame offsets:
#	150
#	10662
#	26300
#	41062
#	55150
#	69000
#	81037
#	94600
#	109250
#	118550
#	131112
#	152175
#	166237
#	185225
#	201962
#	213975
#	226462
#	239200
#
# Disc length: 3316 seconds
#
# Revision: 0
# Processed by: cddbd v1.5.2PL0 Copyright (c) Steve Scherf et al.
# Submitted via: EasyCDDAExtractor 8.2.2.1
#
DISCID=f40cf212
DTITLE=Various Artist - VA--For The Good Times CD1
DYEAR=1900
DGENRE=Oldies
TTITLE0=Johnnie Ray and Frankie Laine - Good Evening Friends
TTITLE1=Vikki Carr - Can't Take My Eyes Off You
TTITLE2=Louis Amstrong - The Home Fire
TTITLE3=Sammy Davis Jr. - The Candy Man
TTITLE4=The Four Aces - Three Coins In The Fountain
TTITLE5=Frank Sinatra - On The Sunny Side Of The Street
TTITLE6=Pat Boone - I'll Be Home
TTITLE7=Nat King Cole - Mona Lisa
TTITLE8=Duanne Eddy - Pepe
TTITLE9=Judy Garland - Over The Rainbow
TTITLE10=Lous Prima - Just A Gigolo
TTITLE11=Dean Martin - That's Amore
TTITLE12=Ray Charles - I Can't Stop Loving You
TTITLE13=Nilsson - Lullaby In Ragtime
TTITLE14=Perry Como - Magic Moments
TTITLE15=Astrud Gilberto - The Girl From Ipanema
TTITLE16=Sammy Davis Jr. - September Song
TTITLE17=Ray Charles Singers - Al Di La
EXTD=
EXTT0=
EXTT1=
EXTT2=
EXTT3=
EXTT4=
EXTT5=
EXTT6=
EXTT7=
EXTT8=
EXTT9=
EXTT10=
EXTT11=
EXTT12=
EXTT13=
EXTT14=
EXTT15=
EXTT16=
EXTT17=
PLAYORDER=
